<svg xmlns="http://www.w3.org/2000/svg" viewBox="0 0 40 40"><defs><style>.cls-1,.cls-2,.cls-3{fill:none;}.cls-1,.cls-2{stroke:#007957;stroke-linecap:round;stroke-linejoin:round;}.cls-1{stroke-width:2px;}</style></defs><g id="Layer_2" data-name="Layer 2"><g id="Layer_12" data-name="Layer 12"><path class="cls-1" d="M6.53,11.85H35.31A1.12,1.12,0,0,1,36.44,13v22.2a1.12,1.12,0,0,1-1.13,1.13H4.69a1.12,1.12,0,0,1-1.13-1.13V8.87"/><path class="cls-1" d="M6.53,5.89H31.15a1,1,0,0,1,1,1v5a0,0,0,0,1,0,0H6.53a3,3,0,0,1-3-3v0a3,3,0,0,1,3-3Z"/><line class="cls-2" x1="7.47" y1="8.87" x2="28.22" y2="8.87"/><path class="cls-1" d="M26.4,21.43h10a0,0,0,0,1,0,0v6.65a0,0,0,0,1,0,0h-10a3.33,3.33,0,0,1-3.33-3.33v0A3.33,3.33,0,0,1,26.4,21.43Z"/><line class="cls-1" x1="26.74" y1="24.76" x2="29.71" y2="24.76"/><rect class="cls-3" width="40" height="40"/></g></g></svg>