<svg xmlns="http://www.w3.org/2000/svg" viewBox="0 0 40 40"><defs><style>.cls-1,.cls-2,.cls-3{fill:none;}.cls-1,.cls-2{stroke:#007957;stroke-width:2px;}.cls-1{stroke-linecap:round;stroke-linejoin:round;}.cls-2{stroke-miterlimit:10;}</style></defs><g id="Layer_2" data-name="Layer 2"><g id="Layer_12" data-name="Layer 12"><path class="cls-1" d="M21.38,6.2c-.45,0-.91-.07-1.38-.07a15.07,15.07,0,1,0,12.51,6.65"/><path class="cls-1" d="M19.83,6.13c-3.66,0-6.63,6.76-6.63,15.09s3,15.08,6.63,15.08,6.62-6.75,6.62-15.08"/><path class="cls-1" d="M19.9,10.52c0,3.61,6.55,10.7,6.55,10.7S33,14.13,33,10.52a6.55,6.55,0,0,0-13.1,0Zm4.39,0a2.16,2.16,0,1,1,2.16,2.16A2.16,2.16,0,0,1,24.29,10.52Z"/><line class="cls-2" x1="35.08" y1="21.22" x2="4.92" y2="21.22"/><line class="cls-2" x1="33.06" y1="28.76" x2="6.94" y2="28.76"/><line class="cls-2" x1="20.9" y1="13.68" x2="6.59" y2="13.68"/><rect class="cls-3" width="40" height="40"/></g></g></svg>